<?xml version="1.0" encoding="UTF-8" standalone="no"?>
<!-- Created with Inkscape (http://www.inkscape.org/) -->

<svg width="7.0416145mm" height="7.3996449mm" viewBox="0 0 7.0416145 7.3996449" version="1.1" id="svg5"
    xml:space="preserve" inkscape:export-filename="icone_notification.svg" inkscape:export-xdpi="51.9"
    inkscape:export-ydpi="51.9" inkscape:version="1.2.2 (b0a8486541, 2022-12-01)" sodipodi:docname="icone notifcation.svg"
    xmlns:inkscape="http://www.inkscape.org/namespaces/inkscape" xmlns:sodipodi="http://sodipodi.sourceforge.net/DTD/sodipodi-0.dtd"
    xmlns="http://www.w3.org/2000/svg"><sodipodi:namedview
     id="namedview7"
     pagecolor="#ffffff"
     bordercolor="#111111"
     borderopacity="1"
     inkscape:showpageshadow="0"
     inkscape:pageopacity="0"
     inkscape:pagecheckerboard="1"
     inkscape:deskcolor="#d1d1d1"
     inkscape:document-units="mm"
     showgrid="false"
     inkscape:zoom="19.02887"
     inkscape:cx="7.4097936"
     inkscape:cy="15.50276"
     inkscape:window-width="1920"
     inkscape:window-height="1057"
     inkscape:window-x="-8"
     inkscape:window-y="-8"
     inkscape:window-maximized="1"
     inkscape:current-layer="layer1" /><defs
     id="defs2" /><g
     inkscape:label="Calque 1"
     inkscape:groupmode="layer"
     id="layer1"
     transform="translate(-40.194791,-23.94379)"><path
       id="path140"
       style="fill:#000000;fill-opacity:1;stroke:none;stroke-width:0.765;stroke-dasharray:none;stroke-opacity:1"
       d="M 43.715506 24.353067 L 40.577197 25.552994 L 40.577197 27.352884 C 40.577197 29.017704 41.916212 30.574705 43.715506 30.952665 C 45.514802 30.574705 46.853816 29.017704 46.853816 27.352884 L 46.853816 25.552994 L 43.715506 24.353067 z M 45.25133 26.020149 A 0.19197194 0.18038501 0 0 1 45.443566 26.2005 L 45.443566 26.831986 A 0.19197194 0.18038501 0 0 1 45.25133 27.012337 C 45.011366 27.012337 44.781108 27.048438 44.5661 27.115173 C 44.49892 27.135023 44.423999 27.120714 44.370247 27.070214 L 43.94805 26.673339 C 43.404771 26.933093 42.95945 27.351409 42.683011 27.861897 L 43.105208 28.258772 C 43.158948 28.309272 43.174377 28.379602 43.153267 28.44274 C 43.082227 28.644771 43.043713 28.861146 43.043713 29.086629 A 0.19197194 0.18038501 0 0 1 42.851476 29.266979 L 42.179683 29.266979 A 0.19197194 0.18038501 0 0 1 41.987963 29.086629 A 3.2635229 3.0665451 0 0 1 45.25133 26.020149 z " /></g></svg>
