<?xml version="1.0" encoding="UTF-8" standalone="no"?>
<!-- Created with Inkscape (http://www.inkscape.org/) -->

<svg
   width="7.0416145mm"
   height="7.3996449mm"
   viewBox="0 0 7.0416145 7.3996449"
   version="1.1"
   id="svg5"
   xml:space="preserve"
   inkscape:export-filename="icone_rond.svg"
   inkscape:export-xdpi="51.900002"
   inkscape:export-ydpi="51.900002"
   inkscape:version="1.2.2 (b0a8486541, 2022-12-01)"
   sodipodi:docname="icone.svg"
   xmlns:inkscape="http://www.inkscape.org/namespaces/inkscape"
   xmlns:sodipodi="http://sodipodi.sourceforge.net/DTD/sodipodi-0.dtd"
   xmlns="http://www.w3.org/2000/svg"
   xmlns:svg="http://www.w3.org/2000/svg"><sodipodi:namedview
     id="namedview7"
     pagecolor="#ffffff"
     bordercolor="#111111"
     borderopacity="1"
     inkscape:showpageshadow="0"
     inkscape:pageopacity="0"
     inkscape:pagecheckerboard="1"
     inkscape:deskcolor="#d1d1d1"
     inkscape:document-units="mm"
     showgrid="false"
     inkscape:zoom="14.517026"
     inkscape:cx="-3.582001"
     inkscape:cy="21.423121"
     inkscape:window-width="1920"
     inkscape:window-height="1057"
     inkscape:window-x="-8"
     inkscape:window-y="-8"
     inkscape:window-maximized="1"
     inkscape:current-layer="layer2" /><defs
     id="defs2" /><g
     inkscape:groupmode="layer"
     id="layer2"
     inkscape:label="Calque 2"
     style="display:inline"><circle
       style="fill:#2196f3;stroke-width:0.765001;stroke-linecap:round;stroke-linejoin:round;fill-opacity:1"
       id="path298"
       cx="3.6907094"
       cy="3.6724844"
       r="5" /></g><g
     inkscape:label="Calque 1"
     inkscape:groupmode="layer"
     id="layer1"
     transform="translate(-40.194791,-23.94379)"><g
       id="g911"
       transform="translate(0.16990285,-0.02733844)"><path
         d="m 46.853906,27.352973 c 0,1.664821 -1.339011,3.221654 -3.138308,3.599614 -1.799296,-0.37796 -3.138309,-1.934793 -3.138309,-3.599614 v -1.799807 l 3.138309,-1.199872 3.138308,1.199872 v 1.799807"
         id="path140"
         style="fill:#ffffff;fill-opacity:1;stroke:#ff9800;stroke-width:0.765;stroke-dasharray:none;stroke-opacity:1"
         sodipodi:nodetypes="ccscccc" /><path
         d="m 44.030854,26.76863 c -0.54328,0.259754 -0.988654,0.678247 -1.265093,1.188736 l 0.422338,0.396847 c 0.05374,0.0505 0.06911,0.120855 0.048,0.183993 -0.07104,0.202031 -0.10942,0.418492 -0.10942,0.643975 a 0.19197194,0.18038501 0 0 1 -0.191971,0.180385 h -0.671903 a 0.19197194,0.18038501 0 0 1 -0.191972,-0.180385 3.2635229,3.0665451 0 0 1 3.263523,-3.066545 0.19197194,0.18038501 0 0 1 0.191972,0.180385 v 0.631347 a 0.19197194,0.18038501 0 0 1 -0.191972,0.180385 c -0.239964,0 -0.470332,0.03608 -0.68534,0.102815 -0.06718,0.01985 -0.142059,0.0054 -0.195811,-0.0451 z"
         id="path315-7"
         style="fill:#d7d7d7;fill-opacity:1;stroke-width:0.765;stroke-dasharray:none" /><path
         d="m 43.947871,26.673142 c -0.54328,0.259754 -0.988654,0.678247 -1.265093,1.188736 l 0.422338,0.396847 c 0.05374,0.0505 0.06911,0.120855 0.048,0.183993 -0.07104,0.202031 -0.10942,0.418492 -0.10942,0.643975 a 0.19197194,0.18038501 0 0 1 -0.191971,0.180385 h -0.671903 a 0.19197194,0.18038501 0 0 1 -0.191972,-0.180385 3.2635229,3.0665451 0 0 1 3.263523,-3.066545 0.19197194,0.18038501 0 0 1 0.191972,0.180385 v 0.631347 a 0.19197194,0.18038501 0 0 1 -0.191972,0.180385 c -0.239964,0 -0.470332,0.03608 -0.68534,0.102815 -0.06718,0.01985 -0.142059,0.0054 -0.195811,-0.0451 z"
         id="path315"
         style="fill:#2196f3;fill-opacity:1;stroke-width:0.765;stroke-dasharray:none" /></g></g></svg>
