<?xml version="1.0" encoding="UTF-8" standalone="no"?>
<!-- Created with Inkscape (http://www.inkscape.org/) -->

<svg width="6.2766194mm" height="6.5995984mm" viewBox="0 0 6.2766194 6.5995985" version="1.1" id="svg5"
    xml:space="preserve" inkscape:export-filename="icone.svg" inkscape:export-xdpi="51.9"
    inkscape:export-ydpi="51.9" inkscape:version="1.2.2 (b0a8486541, 2022-12-01)" sodipodi:docname="icone.svg"
    xmlns:inkscape="http://www.inkscape.org/namespaces/inkscape" xmlns:sodipodi="http://sodipodi.sourceforge.net/DTD/sodipodi-0.dtd"
    xmlns="http://www.w3.org/2000/svg"><sodipodi:namedview
     id="namedview7"
     pagecolor="#ffffff"
     bordercolor="#111111"
     borderopacity="1"
     inkscape:showpageshadow="0"
     inkscape:pageopacity="0"
     inkscape:pagecheckerboard="1"
     inkscape:deskcolor="#d1d1d1"
     inkscape:document-units="mm"
     showgrid="false"
     inkscape:zoom="19.02887"
     inkscape:cx="141.15394"
     inkscape:cy="106.3647"
     inkscape:window-width="1920"
     inkscape:window-height="1057"
     inkscape:window-x="-8"
     inkscape:window-y="-8"
     inkscape:window-maximized="1"
     inkscape:current-layer="layer1" /><defs
     id="defs2" /><g
     inkscape:label="Calque 1"
     inkscape:groupmode="layer"
     id="layer1"
     transform="translate(-40.577197,-24.353067)"><path
       id="path140"
       style="fill:#000000;fill-opacity:1;stroke:none;stroke-width:0.765;stroke-dasharray:none;stroke-opacity:1"
       d="m 43.715506,24.353067 -3.138309,1.199927 v 1.79989 c 0,1.66482 1.339015,3.221821 3.138309,3.599781 1.799296,-0.37796 3.13831,-1.934961 3.13831,-3.599781 v -1.79989 z m 1.535824,1.667082 a 0.19197194,0.18038501 0 0 1 0.192236,0.180351 v 0.631486 a 0.19197194,0.18038501 0 0 1 -0.192236,0.180351 c -0.239964,0 -0.470222,0.0361 -0.68523,0.102836 -0.06718,0.01985 -0.142101,0.0055 -0.195853,-0.04496 L 43.94805,26.673339 c -0.543279,0.259754 -0.9886,0.67807 -1.265039,1.188558 l 0.422197,0.396875 c 0.05374,0.0505 0.06917,0.12083 0.04806,0.183968 -0.07104,0.202031 -0.109554,0.418406 -0.109554,0.643889 a 0.19197194,0.18038501 0 0 1 -0.192237,0.18035 h -0.671793 a 0.19197194,0.18038501 0 0 1 -0.19172,-0.18035 3.2635229,3.0665451 0 0 1 3.263367,-3.06648 z" /></g></svg>
